<?xml version="1.0" standalone="no"?><!DOCTYPE svg PUBLIC "-//W3C//DTD SVG 1.1//EN" "http://www.w3.org/Graphics/SVG/1.1/DTD/svg11.dtd"><svg t="1573960070607" class="icon" viewBox="0 0 1024 1024" version="1.1" xmlns="http://www.w3.org/2000/svg" p-id="1200" data-spm-anchor-id="a313x.7781069.0.i0" xmlns:xlink="http://www.w3.org/1999/xlink" width="200" height="200"><defs><style type="text/css"></style></defs><path d="M361.3 514.4V498l75.6-86.9c-8.6 0.5-16.1 0.7-22.7 0.7h-48.5v-16.4h97.2v13.3l-64.4 75.4-12.4 13.8c9-0.7 17.5-1 25.4-1h55v17.3l-105.2 0.2z" fill="#F5E1A3" p-id="1201"></path><path d="M536.4 405.4v-18.3l85.2-97.9c-9.7 0.5-18.2 0.8-25.6 0.8h-54.6v-18.4h109.4v15l-72.4 85-14 15.5c10.2-0.8 19.7-1.2 28.6-1.2h61.9v19.6l-118.5-0.1z" fill="#F2D273" p-id="1202"></path><path d="M735.1 309.7v-27.5L862.4 136.1c-14.5 0.8-27.2 1.1-38.3 1.1h-81.5V109.7h163.5v22.4L797.8 259l-20.9 23.2c15.2-1.1 29.4-1.7 42.8-1.7h92.4v29.2h-177z" fill="#F1C23B" p-id="1203"></path><path d="M721.4 643.6c8.5 0 16.5-4.2 21.3-11.3l142.8-208.4c5.5-7.9 6.1-18.2 1.6-26.7s-13.7-17.1-23.2-15.6c-5.4 0.9-13.8 8.2-17.9 12.1-8.9 8.5-31 41.4-31 41.4L707.7 591.8h-438V279c0-12.4-8.8-23.1-20.9-25.4l-155.1-30c-14.2-2.9-27.6 6.4-30.3 20.5-2.7 14 6.4 27.6 20.5 30.3l134.2 26v104.9c0 0.7 0 1.4 0.1 2 0 0.7-0.1 1.4-0.1 2v208.4c0 14.3 11.5 25.9 25.8 25.9h4.9l-0.2 73.5c-20.6 15.4-34.1 40.2-34.1 68.3 0 46.6 36.9 84.4 82.3 84.4 45.3 0 82.2-37.8 82.2-84.4 0-11.6-2.3-22.6-6.4-32.7H585c-4.1 10.1-6.4 21.1-6.4 32.7 0 46.6 36.9 84.4 82.2 84.4 45.4 0 82.3-37.8 82.3-84.4 0-46.6-36.9-84.4-82.3-84.4H300.2l0.2-57.4h421z m-60.5 109.1c16.8 0 30.6 14.6 30.6 32.7 0 18-13.7 32.7-30.6 32.7-16.8 0-30.5-14.7-30.5-32.7-0.1-18.1 13.6-32.7 30.5-32.7z m-333.7 32.7c0 18-13.7 32.7-30.6 32.7-16.8 0-30.5-14.7-30.5-32.7s13.7-32.7 30.5-32.7c16.9 0 30.6 14.6 30.6 32.7z" fill="#8B8B8B" p-id="1204"></path></svg>